<?xml version="1.0" encoding="UTF-8" standalone="no"?>
<!DOCTYPE svg PUBLIC "-//W3C//DTD SVG 1.1//EN"
 "http://www.w3.org/Graphics/SVG/1.1/DTD/svg11.dtd">
<!-- Generated by graphviz version 2.44.1 (20200629.0846)
 -->
<!-- Title: G Pages: 1 -->
<svg width="919pt" height="350pt"
 viewBox="0.00 0.00 919.03 350.00" xmlns="http://www.w3.org/2000/svg" xmlns:xlink="http://www.w3.org/1999/xlink">
<g id="graph0" class="graph" transform="scale(1 1) rotate(0) translate(4 346)">
<title>G</title>
<polygon fill="white" stroke="transparent" points="-4,4 -4,-346 915.03,-346 915.03,4 -4,4"/>
<!-- fetchInstance -->
<g id="node1" class="node">
<title>fetchInstance</title>
<ellipse fill="none" stroke="black" cx="275.84" cy="-324" rx="57.69" ry="18"/>
<text text-anchor="middle" x="275.84" y="-320.3" font-family="Times,serif" font-size="14.00">fetchInstance</text>
</g>
<!-- getStackStatus -->
<g id="node2" class="node">
<title>getStackStatus</title>
<ellipse fill="none" stroke="black" cx="275.84" cy="-251" rx="62.29" ry="18"/>
<text text-anchor="middle" x="275.84" y="-247.3" font-family="Times,serif" font-size="14.00">getStackStatus</text>
</g>
<!-- fetchInstance&#45;&gt;getStackStatus -->
<g id="edge1" class="edge">
<title>fetchInstance&#45;&gt;getStackStatus</title>
<path fill="none" stroke="black" d="M275.84,-305.81C275.84,-297.79 275.84,-288.05 275.84,-279.07"/>
<polygon fill="black" stroke="black" points="279.34,-279.03 275.84,-269.03 272.34,-279.03 279.34,-279.03"/>
</g>
<!-- isValidRequest -->
<g id="node3" class="node">
<title>isValidRequest</title>
<ellipse fill="none" stroke="black" cx="275.84" cy="-178" rx="63.89" ry="18"/>
<text text-anchor="middle" x="275.84" y="-174.3" font-family="Times,serif" font-size="14.00">isValidRequest</text>
</g>
<!-- getStackStatus&#45;&gt;isValidRequest -->
<g id="edge2" class="edge">
<title>getStackStatus&#45;&gt;isValidRequest</title>
<path fill="none" stroke="black" d="M275.84,-232.81C275.84,-224.79 275.84,-215.05 275.84,-206.07"/>
<polygon fill="black" stroke="black" points="279.34,-206.03 275.84,-196.03 272.34,-206.03 279.34,-206.03"/>
</g>
<!-- noOp -->
<g id="node4" class="node">
<title>noOp</title>
<ellipse fill="none" stroke="black" cx="74.84" cy="-91" rx="30.59" ry="18"/>
<text text-anchor="middle" x="74.84" y="-87.3" font-family="Times,serif" font-size="14.00">noOp</text>
</g>
<!-- isValidRequest&#45;&gt;noOp -->
<g id="edge3" class="edge">
<title>isValidRequest&#45;&gt;noOp</title>
<path fill="none" stroke="black" d="M213.29,-174.5C161.4,-170.98 93.39,-162.47 75.84,-142 70.52,-135.79 68.98,-127.38 69.16,-119.23"/>
<polygon fill="black" stroke="black" points="72.64,-119.52 70.15,-109.23 65.68,-118.83 72.64,-119.52"/>
<text text-anchor="middle" x="265.34" y="-130.8" font-family="Times,serif" font-size="14.00">{ isEqual, $.getStackStatus.stackStatus, CREATE_IN_PROGRESS }</text>
</g>
<!-- deleteInParallel -->
<g id="node5" class="node">
<title>deleteInParallel</title>
<ellipse fill="none" stroke="black" cx="476.84" cy="-91" rx="65.79" ry="18"/>
<text text-anchor="middle" x="476.84" y="-87.3" font-family="Times,serif" font-size="14.00">deleteInParallel</text>
</g>
<!-- isValidRequest&#45;&gt;deleteInParallel -->
<g id="edge4" class="edge">
<title>isValidRequest&#45;&gt;deleteInParallel</title>
<path fill="none" stroke="black" d="M335.22,-171.33C379.96,-165.98 436.61,-156.59 454.84,-142 462.08,-136.21 467,-127.55 470.31,-119.06"/>
<polygon fill="black" stroke="black" points="473.71,-119.94 473.51,-109.35 467.06,-117.75 473.71,-119.94"/>
<text text-anchor="middle" x="505.34" y="-130.8" font-family="Times,serif" font-size="14.00">default choice</text>
</g>
<!-- containsTenantInstances -->
<g id="node6" class="node">
<title>containsTenantInstances</title>
<ellipse fill="none" stroke="black" cx="96.84" cy="-18" rx="96.68" ry="18"/>
<text text-anchor="middle" x="96.84" y="-14.3" font-family="Times,serif" font-size="14.00">containsTenantInstances</text>
</g>
<!-- deleteInParallel&#45;&gt;containsTenantInstances -->
<g id="edge5" class="edge">
<title>deleteInParallel&#45;&gt;containsTenantInstances</title>
<path fill="none" stroke="black" d="M424,-80.13C358.76,-67.94 247.3,-47.11 172.86,-33.2"/>
<polygon fill="black" stroke="black" points="173.08,-29.68 162.61,-31.29 171.8,-36.57 173.08,-29.68"/>
</g>
<!-- consumedQuota -->
<g id="node7" class="node">
<title>consumedQuota</title>
<ellipse fill="none" stroke="black" cx="279.84" cy="-18" rx="68.49" ry="18"/>
<text text-anchor="middle" x="279.84" y="-14.3" font-family="Times,serif" font-size="14.00">consumedQuota</text>
</g>
<!-- deleteInParallel&#45;&gt;consumedQuota -->
<g id="edge6" class="edge">
<title>deleteInParallel&#45;&gt;consumedQuota</title>
<path fill="none" stroke="black" d="M438.86,-76.31C407.31,-64.94 362.24,-48.7 328.14,-36.41"/>
<polygon fill="black" stroke="black" points="328.97,-32.99 318.38,-32.89 326.6,-39.57 328.97,-32.99"/>
</g>
<!-- deleteStack -->
<g id="node8" class="node">
<title>deleteStack</title>
<ellipse fill="none" stroke="black" cx="417.84" cy="-18" rx="51.19" ry="18"/>
<text text-anchor="middle" x="417.84" y="-14.3" font-family="Times,serif" font-size="14.00">deleteStack</text>
</g>
<!-- deleteInParallel&#45;&gt;deleteStack -->
<g id="edge7" class="edge">
<title>deleteInParallel&#45;&gt;deleteStack</title>
<path fill="none" stroke="black" d="M462.86,-73.17C455.51,-64.33 446.37,-53.33 438.25,-43.55"/>
<polygon fill="black" stroke="black" points="440.81,-41.16 431.72,-35.71 435.42,-45.63 440.81,-41.16"/>
</g>
<!-- releasePort -->
<g id="node9" class="node">
<title>releasePort</title>
<ellipse fill="none" stroke="black" cx="536.84" cy="-18" rx="50.09" ry="18"/>
<text text-anchor="middle" x="536.84" y="-14.3" font-family="Times,serif" font-size="14.00">releasePort</text>
</g>
<!-- deleteInParallel&#45;&gt;releasePort -->
<g id="edge8" class="edge">
<title>deleteInParallel&#45;&gt;releasePort</title>
<path fill="none" stroke="black" d="M491.06,-73.17C498.53,-64.33 507.83,-53.33 516.09,-43.55"/>
<polygon fill="black" stroke="black" points="518.94,-45.6 522.72,-35.71 513.6,-41.08 518.94,-45.6"/>
</g>
<!-- deleteMonitor -->
<g id="node10" class="node">
<title>deleteMonitor</title>
<ellipse fill="none" stroke="black" cx="665.84" cy="-18" rx="61.19" ry="18"/>
<text text-anchor="middle" x="665.84" y="-14.3" font-family="Times,serif" font-size="14.00">deleteMonitor</text>
</g>
<!-- deleteInParallel&#45;&gt;deleteMonitor -->
<g id="edge9" class="edge">
<title>deleteInParallel&#45;&gt;deleteMonitor</title>
<path fill="none" stroke="black" d="M514.18,-75.97C544.5,-64.58 587.4,-48.47 619.84,-36.28"/>
<polygon fill="black" stroke="black" points="621.41,-39.43 629.54,-32.64 618.95,-32.88 621.41,-39.43"/>
</g>
<!-- deleteSecurityGroup -->
<g id="node11" class="node">
<title>deleteSecurityGroup</title>
<ellipse fill="none" stroke="black" cx="827.84" cy="-18" rx="83.39" ry="18"/>
<text text-anchor="middle" x="827.84" y="-14.3" font-family="Times,serif" font-size="14.00">deleteSecurityGroup</text>
</g>
<!-- deleteInParallel&#45;&gt;deleteSecurityGroup -->
<g id="edge10" class="edge">
<title>deleteInParallel&#45;&gt;deleteSecurityGroup</title>
<path fill="none" stroke="black" d="M527.88,-79.68C588.92,-67.33 691.34,-46.61 759.25,-32.87"/>
<polygon fill="black" stroke="black" points="760.32,-36.23 769.42,-30.82 758.93,-29.37 760.32,-36.23"/>
</g>
</g>
</svg>
